<?xml version="1.0" encoding="utf-8"?>
<!-- Generator: Adobe Illustrator 28.0.0, SVG Export Plug-In . SVG Version: 6.00 Build 0)  -->
<svg version="1.1" id="Layer_1" xmlns="http://www.w3.org/2000/svg" xmlns:xlink="http://www.w3.org/1999/xlink" x="0px" y="0px"
	 viewBox="0 0 450 404.7" style="enable-background:new 0 0 450 404.7;" xml:space="preserve">
<style type="text/css">
	.st0{fill:#FEC044;}
	.st1{fill:#858FAE;}
	.st2{fill:#B4B2ED;}
	.st3{fill:#8380E1;}
	.st4{fill:#9C99E7;}
	.st5{fill:#010100;}
	.st6{fill:#000001;}
	.st7{fill:#010101;}
</style>
<g>
	<path d="M450,188.2c-3,8.5-8.4,13.9-17.9,14.1c-2.3,0.1-1.9,2-2.1,3.2c-4.8,21.4-9.5,42.9-14.3,64.3c-4.2,19.1-8.5,38.3-12.8,57.4
		c-0.6,2.8-0.6,5.3,0.3,8.1c9.6,28.1-6.5,58.9-35.1,67.3c-28.8,8.5-58.8-8.8-65.9-38c-0.8-3.2-2.1-3.9-5.2-3.9
		c-48,0.1-96.1,0.1-144.1,0c-3.5,0-4.6,1-5.4,4.3c-7,28.9-37.1,46-65.7,37.7c-28.5-8.3-44.7-39.2-35.2-67.3c0.9-2.8,1-5.3,0.4-8.1
		c-9-40.3-17.9-80.6-26.8-120.9c-0.6-2.6-1-4.2-4.5-4.4c-8.9-0.5-15.6-8.1-15.8-17c-0.1-7.5-0.1-15,0-22.4
		c0.1-6.7,3.1-11.9,8.9-15.1c2.1-1.1,3.3-2.7,4.2-4.7c9-18.7,18.2-37.3,27.1-56.1c1.9-4,4.6-6.4,8.8-7.8C70,72,90.7,64.8,111.4,57.8
		c2.2-0.7,3.8-1.9,5.4-3.5c16-16.6,32.1-33,47.9-49.7c3.8-4,7.6-5.4,13.2-4.2c23.7,4.9,47.6,9.5,71.4,14c3.2,0.6,5.7,2,7.9,4.2
		C268,29.1,278.8,39.5,289.4,50c1.9,1.9,3.8,2.7,6.5,2.6c16.5-0.7,33.1-1.2,49.6-2c4.7-0.2,8,1.3,10.8,5.2
		c7.6,10.4,15.5,20.6,23.3,30.9c1.4,1.8,2.9,3.1,5,4c12.9,5.5,25.6,11.4,38.5,16.8c5.1,2.1,7.9,5.4,9.1,10.8
		c1.9,8.4,4.3,16.7,6.4,25.1c0.5,2,1.2,3.6,3.3,4.8c4.3,2.4,6.2,6.8,8,11.1C450,168.8,450,178.5,450,188.2z"/>
	<path class="st0" d="M61.8,312.2c-5.6-25.2-11-49.7-16.6-74.8c12.2,0,24,0,35.8,0c1.9,0,3.8,0.1,5.7,0c5.4-0.2,9.1-3.7,9.1-8.7
		c0.1-5.2-3.7-8.9-9.3-8.9c-13.6-0.1-27.2-0.1-40.9,0c-3.3,0-5.1-0.6-5.4-4.3c-0.3-3.3-1.3-6.6-2.2-9.8c-0.9-3,0.1-4,3.1-3.6
		c0.4,0.1,0.9,0,1.3,0c121.7,0,243.4,0,365,0c5.1,0,5.1,0,4,5.1c-7.4,33.6-14.8,67.2-22.2,100.8c-0.3,1.2-0.7,2.4-1.1,4
		c-8.1-6.6-16.9-10.9-27-12.4c-26.5-4-52.4,12.9-58.7,38.9c-0.9,3.8-2.4,4.6-6,4.6c-47.9-0.1-95.8-0.1-143.6,0c-2.5,0-4.1,0-4.9-3.2
		c-9.7-38.3-52.7-53.3-83.9-29.3C63.4,311.1,62.8,311.5,61.8,312.2z"/>
	<path class="st1" d="M224.8,184.6c-67.5,0-135,0-202.5,0.1c-3.9,0-5-1-4.7-4.8c0.4-4.8,0.2-9.7,0.1-14.5c0-2,0.5-3.1,2.7-2.8
		c0.9,0.1,1.8,0,2.6,0c134.7,0,269.5,0,404.2-0.1c4.5,0,5.8,1.1,5.4,5.5c-0.4,4.4-0.2,8.8,0,13.2c0.1,2.6-0.5,3.6-3.4,3.5
		c-6-0.2-12-0.1-18-0.1C349,184.6,286.9,184.6,224.8,184.6z"/>
	<path class="st1" d="M131.9,352.2c-0.1,19.3-16.1,35.1-35.5,35c-19.3-0.1-35-16.2-34.8-35.7c0.2-19.1,16.1-34.8,35.3-34.7
		C116.2,316.8,132,332.7,131.9,352.2z"/>
	<path class="st1" d="M318.2,351.9c0-19.4,15.9-35.2,35.3-35.2c19.3,0.1,35.1,16,35,35.5c-0.1,19.2-15.9,34.9-35.1,34.9
		C334,387.2,318.2,371.3,318.2,351.9z"/>
	<path class="st2" d="M172.2,22.4c9,13,17.6,25.5,26.3,38c1,1.4,0.8,2.2-0.5,3.2c-12.4,9.8-24.7,19.7-37,29.6
		c-1.5,1.2-2.2,0.6-3.2-0.5c-8.2-8.8-16.4-17.6-24.7-26.3c-1.6-1.6-1.1-2.5,0.2-3.9C146.2,49.3,159,36,172.2,22.4z"/>
	<path class="st3" d="M31.8,145c2.3-4.8,4.4-9.2,6.5-13.5c4.5-9.3,9.1-18.6,13.6-28c0.8-1.7,1.2-3.1,3.7-1.5c14,8.8,28,17.4,42.1,26
		c1.6,1,2.1,2.1,2.3,3.9c0.9,13.2,0.9,13.2-12,13.2c-17.1,0-34.2,0-51.3,0C35.1,145,33.7,145,31.8,145z"/>
	<path class="st2" d="M331.7,68.8c-13.7,22.2-26.9,43.7-40.5,65.7c-5.3-12.8-10.2-25.1-15.4-37.4c-0.7-1.7,0-2.7,0.9-3.9
		c5-6.9,10-13.7,14.9-20.6c0.9-1.3,1.7-2.4,3.7-2.5C307.3,69.8,319.1,69.3,331.7,68.8z"/>
	<path class="st4" d="M124.9,83.3c8.2,8.7,15.7,16.8,23.2,24.7c1.3,1.4,1.4,2.8,1.3,4.4c-0.4,9.8-0.8,19.6-1,29.5
		c-0.1,2.5-0.8,3.2-3.3,3.2c-8.1-0.1-16.1-0.2-24.2,0c-3,0.1-3.4-1-3.6-3.7c-1-15.6,2.7-30.6,5.3-45.7
		C123.3,91.8,124.1,87.9,124.9,83.3z"/>
	<path class="st4" d="M275.9,145c-14.2,0-28.4,0-42.5,0c-4.7,0-9.4-0.2-14,0.1c-3.3,0.2-3.7-1.2-2.8-3.8c0-0.1,0.1-0.3,0.1-0.4
		c0.4-8.8,5.2-13.8,13.1-17.4c9.8-4.5,19-10.2,28.5-15.4c1.6-0.9,2.7-1.5,3.6,0.9c4.6,11.5,9.4,23,14.1,34.5
		C276,143.8,275.9,144.3,275.9,145z"/>
	<path class="st3" d="M247.1,94.1c-12.1,6.6-23.2,12.7-34.3,18.8c-1.8,1-3.3,0.7-5,0.2c-10-3.3-20-6.5-29.9-9.8
		c-0.4-1.4,0.8-1.8,1.5-2.4c10.2-8.1,20.3-16.3,30.6-24.3c1-0.8,1.8-2.5,3.7-1.4C224.5,81.4,235.5,87.5,247.1,94.1z"/>
	<path class="st4" d="M225.7,61.7c7.7-8.2,15.2-16.2,22.7-24.2c1.2-1.3,2.1-1,3.2,0.1c7.9,7.8,15.9,15.6,23.9,23.3
		c1.3,1.3,1.4,2.2,0.3,3.7c-3.9,5.3-7.8,10.6-11.6,16c-1.2,1.7-2.1,1.8-3.9,0.8C249,74.9,237.5,68.4,225.7,61.7z"/>
	<path class="st3" d="M402.9,145c-5,0-9.9-0.1-14.9,0c-2,0-3.2-0.2-3.2-2.8c0.1-9.8,0.1-19.6,0-29.5c0-2,0.5-2.6,2.5-1.7
		c8.7,3.9,17.4,7.7,26.1,11.4c1.3,0.6,2,1.4,2.4,2.9c1.4,5.7,2.8,11.4,4.5,17c0.7,2.2,0.2,2.8-2,2.7
		C413.2,144.9,408.1,145,402.9,145z"/>
	<path class="st3" d="M320.2,144.2c15.5-10.2,30.9-20.5,47.2-31.3c0,6.3,0.1,11.9,0,17.5c-0.1,4.8,2.1,11.2-0.9,13.9
		c-2.6,2.4-8.9,0.7-13.6,0.8c-10.8,0-21.6,0-32.4,0C320.4,144.7,320.3,144.4,320.2,144.2z"/>
	<path class="st3" d="M181.6,145c-4.2,0-8.5-0.1-12.7,0c-2.3,0.1-3.1-0.5-3-2.9c0.4-6.9,0.6-13.8,0.8-20.7c0.1-2.2,0.3-3.2,3-2.3
		c9.7,3.3,19.4,6.3,29.2,9.5c1.6,0.5,2.2,1,1.9,3.1c-2.2,13.3-2.1,13.3-15.2,13.3C184.2,145,182.9,145,181.6,145z"/>
	<path class="st4" d="M319.1,122.8c9.7-15.8,19.4-31.6,29.5-47.9c4.8,6.3,9.3,12.3,13.9,18.3c1.2,1.6-0.4,2-1.2,2.6
		c-13.8,9.2-27.7,18.4-41.6,27.6C319.5,123.1,319.3,122.9,319.1,122.8z"/>
	<path class="st2" d="M107.9,77.6c-1.8,10.6-3.5,20.3-5.2,30.1c-0.4,2.1-1.1,2.3-2.9,1.2c-9.6-6-19.3-11.9-29.7-18.4
		C82.9,86.1,95,82,107.9,77.6z"/>
	<path class="st2" d="M192.9,21.3c13.6,2.7,26.2,5.1,39.4,7.7c-6.3,6.7-12.2,13-18.1,19.3c-1.4,1.5-2.1,1-3-0.4
		C205.4,39.4,199.5,30.9,192.9,21.3z"/>
	<path class="st5" d="M126.6,219.9c4.7-0.1,8.7,3.7,8.8,8.5c0.2,5-3.7,9.1-8.6,9.1c-4.8,0.1-9-4.1-8.9-8.9
		C118,223.9,122,219.9,126.6,219.9z"/>
	<path class="st6" d="M105.5,351.9c0,4.9-4.2,8.9-9,8.8c-4.7-0.1-8.5-4.1-8.5-8.8c0-4.8,4.2-8.9,9-8.8
		C101.6,343.3,105.5,347.3,105.5,351.9z"/>
	<path class="st7" d="M353.3,343.1c4.7,0,8.7,3.8,8.8,8.5c0.2,4.8-3.9,9-8.7,9.1c-4.8,0-8.9-4.1-8.8-9
		C344.6,347.1,348.6,343.2,353.3,343.1z"/>
</g>
</svg>
