<?xml version="1.0" encoding="utf-8"?>
<!-- Generator: Adobe Illustrator 28.0.0, SVG Export Plug-In . SVG Version: 6.00 Build 0)  -->
<svg version="1.1" id="Layer_1" xmlns="http://www.w3.org/2000/svg" xmlns:xlink="http://www.w3.org/1999/xlink" x="0px" y="0px"
	 viewBox="0 0 2015 404.7" style="enable-background:new 0 0 2015 404.7;" xml:space="preserve">
<style type="text/css">
	.st0{fill:#FEC044;}
	.st1{fill:#858FAE;}
	.st2{fill:#B4B2ED;}
	.st3{fill:#8380E1;}
	.st4{fill:#9C99E7;}
	.st5{fill:#010100;}
	.st6{fill:#000001;}
	.st7{fill:#010101;}
</style>
<g>
	<g>
		<path d="M450,188.2c-3,8.5-8.4,13.9-17.9,14.1c-2.3,0.1-1.9,2-2.1,3.2c-4.8,21.4-9.5,42.9-14.3,64.3c-4.2,19.1-8.5,38.3-12.8,57.4
			c-0.6,2.8-0.6,5.3,0.3,8.1c9.6,28.1-6.5,58.9-35.1,67.3c-28.8,8.5-58.8-8.8-65.9-38c-0.8-3.2-2.1-3.9-5.2-3.9
			c-48,0.1-96.1,0.1-144.1,0c-3.5,0-4.6,1-5.4,4.3c-7,28.9-37.1,46-65.7,37.7c-28.5-8.3-44.7-39.2-35.2-67.3c0.9-2.8,1-5.3,0.4-8.1
			c-9-40.3-17.9-80.6-26.8-120.9c-0.6-2.6-1-4.2-4.5-4.4c-8.9-0.5-15.6-8.1-15.8-17c-0.1-7.5-0.1-15,0-22.4
			c0.1-6.7,3.1-11.9,8.9-15.1c2.1-1.1,3.3-2.7,4.2-4.7c9-18.7,18.2-37.3,27.1-56.1c1.9-4,4.6-6.4,8.8-7.8
			C70,72,90.7,64.8,111.4,57.8c2.2-0.7,3.8-1.9,5.4-3.5c16-16.6,32.1-33,47.9-49.7c3.8-4,7.6-5.4,13.2-4.2
			c23.7,4.9,47.6,9.5,71.4,14c3.2,0.6,5.7,2,7.9,4.2C268,29.1,278.8,39.5,289.4,50c1.9,1.9,3.8,2.7,6.5,2.6
			c16.5-0.7,33.1-1.2,49.6-2c4.7-0.2,8,1.3,10.8,5.2c7.6,10.4,15.5,20.6,23.3,30.9c1.4,1.8,2.9,3.1,5,4
			c12.9,5.5,25.6,11.4,38.5,16.8c5.1,2.1,7.9,5.4,9.1,10.8c1.9,8.4,4.3,16.7,6.4,25.1c0.5,2,1.2,3.6,3.3,4.8c4.3,2.4,6.2,6.8,8,11.1
			C450,168.8,450,178.5,450,188.2z"/>
		<path class="st0" d="M61.8,312.2c-5.6-25.2-11-49.7-16.6-74.8c12.2,0,24,0,35.8,0c1.9,0,3.8,0.1,5.7,0c5.4-0.2,9.1-3.7,9.1-8.7
			c0.1-5.2-3.7-8.9-9.3-8.9c-13.6-0.1-27.2-0.1-40.9,0c-3.3,0-5.1-0.6-5.4-4.3c-0.3-3.3-1.3-6.6-2.2-9.8c-0.9-3,0.1-4,3.1-3.6
			c0.4,0.1,0.9,0,1.3,0c121.7,0,243.4,0,365,0c5.1,0,5.1,0,4,5.1c-7.4,33.6-14.8,67.2-22.2,100.8c-0.3,1.2-0.7,2.4-1.1,4
			c-8.1-6.6-16.9-10.9-27-12.4c-26.5-4-52.4,12.9-58.7,38.9c-0.9,3.8-2.4,4.6-6,4.6c-47.9-0.1-95.8-0.1-143.6,0
			c-2.5,0-4.1,0-4.9-3.2c-9.7-38.3-52.7-53.3-83.9-29.3C63.4,311.1,62.8,311.5,61.8,312.2z"/>
		<path class="st1" d="M224.8,184.6c-67.5,0-135,0-202.5,0.1c-3.9,0-5-1-4.7-4.8c0.4-4.8,0.2-9.7,0.1-14.5c0-2,0.5-3.1,2.7-2.8
			c0.9,0.1,1.8,0,2.6,0c134.7,0,269.5,0,404.2-0.1c4.5,0,5.8,1.1,5.4,5.5c-0.4,4.4-0.2,8.8,0,13.2c0.1,2.6-0.5,3.6-3.4,3.5
			c-6-0.2-12-0.1-18-0.1C349,184.6,286.9,184.6,224.8,184.6z"/>
		<path class="st1" d="M131.9,352.2c-0.1,19.3-16.1,35.1-35.5,35c-19.3-0.1-35-16.2-34.8-35.7c0.2-19.1,16.1-34.8,35.3-34.7
			C116.2,316.8,132,332.7,131.9,352.2z"/>
		<path class="st1" d="M318.2,351.9c0-19.4,15.9-35.2,35.3-35.2c19.3,0.1,35.1,16,35,35.5c-0.1,19.2-15.9,34.9-35.1,34.9
			C334,387.2,318.2,371.3,318.2,351.9z"/>
		<path class="st2" d="M172.2,22.4c9,13,17.6,25.5,26.3,38c1,1.4,0.8,2.2-0.5,3.2c-12.4,9.8-24.7,19.7-37,29.6
			c-1.5,1.2-2.2,0.6-3.2-0.5c-8.2-8.8-16.4-17.6-24.7-26.3c-1.6-1.6-1.1-2.5,0.2-3.9C146.2,49.3,159,36,172.2,22.4z"/>
		<path class="st3" d="M31.8,145c2.3-4.8,4.4-9.2,6.5-13.5c4.5-9.3,9.1-18.6,13.6-28c0.8-1.7,1.2-3.1,3.7-1.5
			c14,8.8,28,17.4,42.1,26c1.6,1,2.1,2.1,2.3,3.9c0.9,13.2,0.9,13.2-12,13.2c-17.1,0-34.2,0-51.3,0C35.1,145,33.7,145,31.8,145z"/>
		<path class="st2" d="M331.7,68.8c-13.7,22.2-26.9,43.7-40.5,65.7c-5.3-12.8-10.2-25.1-15.4-37.4c-0.7-1.7,0-2.7,0.9-3.9
			c5-6.9,10-13.7,14.9-20.6c0.9-1.3,1.7-2.4,3.7-2.5C307.3,69.8,319.1,69.3,331.7,68.8z"/>
		<path class="st4" d="M124.9,83.3c8.2,8.7,15.7,16.8,23.2,24.7c1.3,1.4,1.4,2.8,1.3,4.4c-0.4,9.8-0.8,19.6-1,29.5
			c-0.1,2.5-0.8,3.2-3.3,3.2c-8.1-0.1-16.1-0.2-24.2,0c-3,0.1-3.4-1-3.6-3.7c-1-15.6,2.7-30.6,5.3-45.7
			C123.3,91.8,124.1,87.9,124.9,83.3z"/>
		<path class="st4" d="M275.9,145c-14.2,0-28.4,0-42.5,0c-4.7,0-9.4-0.2-14,0.1c-3.3,0.2-3.7-1.2-2.8-3.8c0-0.1,0.1-0.3,0.1-0.4
			c0.4-8.8,5.2-13.8,13.1-17.4c9.8-4.5,19-10.2,28.5-15.4c1.6-0.9,2.7-1.5,3.6,0.9c4.6,11.5,9.4,23,14.1,34.5
			C276,143.8,275.9,144.3,275.9,145z"/>
		<path class="st3" d="M247.1,94.1c-12.1,6.6-23.2,12.7-34.3,18.8c-1.8,1-3.3,0.7-5,0.2c-10-3.3-20-6.5-29.9-9.8
			c-0.4-1.4,0.8-1.8,1.5-2.4c10.2-8.1,20.3-16.3,30.6-24.3c1-0.8,1.8-2.5,3.7-1.4C224.5,81.4,235.5,87.5,247.1,94.1z"/>
		<path class="st4" d="M225.7,61.7c7.7-8.2,15.2-16.2,22.7-24.2c1.2-1.3,2.1-1,3.2,0.1c7.9,7.8,15.9,15.6,23.9,23.3
			c1.3,1.3,1.4,2.2,0.3,3.7c-3.9,5.3-7.8,10.6-11.6,16c-1.2,1.7-2.1,1.8-3.9,0.8C249,74.9,237.5,68.4,225.7,61.7z"/>
		<path class="st3" d="M402.9,145c-5,0-9.9-0.1-14.9,0c-2,0-3.2-0.2-3.2-2.8c0.1-9.8,0.1-19.6,0-29.5c0-2,0.5-2.6,2.5-1.7
			c8.7,3.9,17.4,7.7,26.1,11.4c1.3,0.6,2,1.4,2.4,2.9c1.4,5.7,2.8,11.4,4.5,17c0.7,2.2,0.2,2.8-2,2.7
			C413.2,144.9,408.1,145,402.9,145z"/>
		<path class="st3" d="M320.2,144.2c15.5-10.2,30.9-20.5,47.2-31.3c0,6.3,0.1,11.9,0,17.5c-0.1,4.8,2.1,11.2-0.9,13.9
			c-2.6,2.4-8.9,0.7-13.6,0.8c-10.8,0-21.6,0-32.4,0C320.4,144.7,320.3,144.4,320.2,144.2z"/>
		<path class="st3" d="M181.6,145c-4.2,0-8.5-0.1-12.7,0c-2.3,0.1-3.1-0.5-3-2.9c0.4-6.9,0.6-13.8,0.8-20.7c0.1-2.2,0.3-3.2,3-2.3
			c9.7,3.3,19.4,6.3,29.2,9.5c1.6,0.5,2.2,1,1.9,3.1c-2.2,13.3-2.1,13.3-15.2,13.3C184.2,145,182.9,145,181.6,145z"/>
		<path class="st4" d="M319.1,122.8c9.7-15.8,19.4-31.6,29.5-47.9c4.8,6.3,9.3,12.3,13.9,18.3c1.2,1.6-0.4,2-1.2,2.6
			c-13.8,9.2-27.7,18.4-41.6,27.6C319.5,123.1,319.3,122.9,319.1,122.8z"/>
		<path class="st2" d="M107.9,77.6c-1.8,10.6-3.5,20.3-5.2,30.1c-0.4,2.1-1.1,2.3-2.9,1.2c-9.6-6-19.3-11.9-29.7-18.4
			C82.9,86.1,95,82,107.9,77.6z"/>
		<path class="st2" d="M192.9,21.3c13.6,2.7,26.2,5.1,39.4,7.7c-6.3,6.7-12.2,13-18.1,19.3c-1.4,1.5-2.1,1-3-0.4
			C205.4,39.4,199.5,30.9,192.9,21.3z"/>
		<path class="st5" d="M126.6,219.9c4.7-0.1,8.7,3.7,8.8,8.5c0.2,5-3.7,9.1-8.6,9.1c-4.8,0.1-9-4.1-8.9-8.9
			C118,223.9,122,219.9,126.6,219.9z"/>
		<path class="st6" d="M105.5,351.9c0,4.9-4.2,8.9-9,8.8c-4.7-0.1-8.5-4.1-8.5-8.8c0-4.8,4.2-8.9,9-8.8
			C101.6,343.3,105.5,347.3,105.5,351.9z"/>
		<path class="st7" d="M353.3,343.1c4.7,0,8.7,3.8,8.8,8.5c0.2,4.8-3.9,9-8.7,9.1c-4.8,0-8.9-4.1-8.8-9
			C344.6,347.1,348.6,343.2,353.3,343.1z"/>
	</g>
	<g>
		<path d="M682.9,161.5c1.7,10.5-0.9,21.9-7.7,34.4c-2.9,5.3-5.2,9.2-6.9,11.6c7.9,6.4,12.5,15.4,13.8,27
			c1.8,15.8,0.6,27.6-3.6,35.5c-1.8,3.3-4.3,6.1-7.3,8.5c-3,2.4-5.8,4.2-8.4,5.5c-2.6,1.3-6.1,2.3-10.7,3c-4.6,0.7-8.1,1.2-10.5,1.4
			c-2.4,0.2-6.2,0.3-11.6,0.4c-5.3,0.1-8.7,0.2-10.2,0.4c-2.4,0-5.9,0.2-10.4,0.7c-4.6,0.4-7.9,0.7-10,0.8c-2.1,0.1-5.6,0-10.6-0.4
			c-2-0.2-5-0.3-9.1-0.3c-4,0-6.9-0.1-8.5-0.3c-2,0-4.9,0-8.5,0c-4.8,0.7-10,0.7-15.7,0c-11,0-19.3,0-24.8,0c-1.5,0-2.5-2.6-3-7.7
			c-0.5-5.1-0.5-10.2,0.1-15.3c0.6-5,1.6-7.6,2.9-7.6c4,0,9.3,0,15.7,0c0-10.1,0-17,0-20.9c0-0.9-0.2-5-0.5-12.1
			c-8.3-0.4-14.3-0.4-18.2,0c-1.1,0.2-2-2.2-2.8-7.2c-0.7-4.9-0.9-10-0.4-15.3c0.5-5.2,1.5-7.9,3.2-8.1c2.9-0.4,9.8-0.4,20.6,0
			c0-2.2-0.4-5.8-1.2-10.7c-0.8-4.9-1.1-8.8-1-11.6c0.4-10.8,0.4-18.5,0-23.1c-0.4-4.2-0.5-10.8-0.3-19.8
			c-8.4,0.2-13.5,0.4-15.1,0.8c-1.1,0.4-2.1-4.1-3-13.2c-0.9-10.8,0.1-16.6,3-17.3c1.1-0.4,4.7-0.6,10.7-0.6c2.9,0,7.6-0.6,14-1.7
			c3.1-0.5,6.4-0.9,9.9-1c3.5-0.1,7.6,0,12.5,0.1c4.9,0.2,8.2,0.3,10,0.3c2.2,0,5.4,0,9.6-0.1c4.2-0.1,7.2-0.2,9.1-0.2
			c2.4-0.2,6.7-0.2,12.9,0c6.2,0.2,10.6,0.2,13.2,0c12.3-0.2,23.2,2.4,32.7,7.7c0.7,0.4,1.5,0.8,2.2,1.4l0.3,0.3
			c4.4,2.2,7.2,3.9,8.5,5.2c4.8,4,7.8,9.2,9.1,15.4c0.2,1.5,0.5,3.3,1.1,5.5c0.5,2.2,1.1,4.3,1.5,6.2c0.4,1.9,0.8,3.8,1,5.6
			C681.4,151,682.1,156.5,682.9,161.5z M567.8,226.7c0.5,8.3,0.8,12.6,0.8,12.9c0,3.3,0,9.7,0,19.3c9.2,0,16.8,0,22.8,0
			c13.6,0.2,26.2-0.4,38-1.7c7-0.7,14.5-3.7,22.6-8.8c0.2-5.1,0-9-0.5-11.6c0-0.4-0.1-0.8-0.4-1.4c-0.3-0.6-0.4-0.9-0.4-1.1
			c-0.2-0.6-0.4-1.2-0.5-1.9c-0.4-0.2-1.1-0.6-2.2-1.4c-1.1-0.7-1.9-1.3-2.5-1.7c-0.9-0.4-1.6-0.6-2.1-0.8c-0.5-0.2-0.6-0.3-0.4-0.3
			c-0.4,0-0.8,0-1.4-0.1c-0.5-0.1-1-0.1-1.4-0.1s-0.8,0-1.2-0.1c-0.5-0.1-0.9-0.1-1.2-0.1c-3.9-0.7-6.2-1.1-7.2-1.1H600
			c-1.1,0-2.3-0.2-3.6-0.5c-4,0.4-7.4,0.5-10.2,0.5c-0.5,0-1.2-0.1-1.9-0.3c-4.2,0.2-8.2,0.3-11.8,0.3H567.8z M622.9,129.3
			c-5.7,0-14.4-0.2-26.1-0.4c-11.7-0.3-20.5-0.4-26.4-0.4h-2.2c-0.2,11.6-0.1,19.3,0.3,23.1c0.2,3.1,0.1,10.8-0.3,23.1
			c0,2.4,0.4,5.7,1.1,10.1c0.7,4.3,1.1,7.2,1.1,8.7c7.7-0.9,14.1-1.3,19.3-1.1c2.8,0,7.5,0.2,14.3,0.4c6.8,0.3,12,0.5,15.7,0.7
			c2.8-0.4,4.9-0.6,6.3-0.8c1.3-0.2,3.8-0.3,7.4-0.3c3.7,0,6.4-0.2,8.3-0.5c0.7-0.7,1.4-1.6,1.9-2.5c0.4-0.5,1.1-1.8,2.1-3.7
			s1.7-3.3,2.2-4.1c0.5-0.8,1.1-2.1,1.9-3.7c0.8-1.7,1.4-3,1.6-4.1c0.3-1.1,0.6-2.4,0.8-4c0.3-1.6,0.3-3.1,0.1-4.5
			c0-1.1-0.7-6.9-2.2-17.3c0-0.4-0.8-4.2-2.5-11.6c-0.2-0.2-0.3-0.4-0.3-0.6v-0.5c-0.7-0.2-1.6-0.6-2.6-1.3c-1-0.6-1.8-1.1-2.3-1.5
			c-1.7-0.7-3.6-1.5-5.8-2.2C632.6,129.6,628,129.3,622.9,129.3z"/>
		<path d="M875.5,101.2c1.3-0.2,2.3,2.3,2.9,7.3c0.6,5,0.7,10.2,0.3,15.4c-0.5,5.2-1.5,7.9-3.2,8.1c-2.4,0.2-5.3,0.3-8.8,0.3
			c0.4,4.2,0.5,10.2,0.3,17.9c0,3,0.2,7,0.6,12.1c0.4,5.2,0.6,9.2,0.7,12.1s-0.2,6.9-1,11.8c0,0.7,0,2.4-0.1,5.1
			c-0.1,2.7-0.2,4.5-0.3,5.4c-0.1,0.9-0.2,2.6-0.4,4.9c-0.2,2.4-0.4,4.1-0.5,5.1c-0.2,1-0.5,2.6-1,4.7c-0.5,2.1-0.9,3.7-1.4,4.8
			c-0.5,1.1-1.1,2.5-1.9,4.3c-0.8,1.7-1.7,3.2-2.6,4.4c-0.9,1.2-2,2.5-3.2,3.9c-1.2,1.4-2.5,2.6-4,3.7c-1.5,1.1-3,2.1-4.7,2.9
			c-1.7,0.8-3.2,1.5-4.7,2.2c-1.5,0.6-3.3,1.2-5.5,1.8c-2.2,0.5-3.9,1-5.1,1.4c-1.2,0.4-3.1,0.6-5.8,0.8c-2.7,0.2-4.5,0.4-5.4,0.6
			c-0.9,0.2-2.9,0.3-5.9,0.3c-3,0-4.8,0-5.4,0c-0.5,0-2.5,0-5.8,0s-5.1,0-5.2,0c-10.1,0-21-0.2-32.8-0.6c-0.2,0-1.3,0-3.3-0.1
			c-2-0.1-3.3-0.2-3.9-0.3c-0.5-0.1-1.7-0.2-3.4-0.3c-1.7-0.1-3-0.2-3.7-0.4c-0.7-0.2-1.9-0.4-3.4-0.5c-1.6-0.2-2.8-0.5-3.7-0.8
			c-0.9-0.4-2-0.8-3.2-1.3c-1.2-0.4-2.3-1.1-3.4-1.8c-3.5-2-6.5-4.5-9.1-7.6c-2.6-3-4.6-6.1-6.2-9.1c-1.6-3-2.8-6.6-3.7-10.7
			s-1.6-7.8-1.9-11.2c-0.4-3.3-0.7-7.1-1.1-11.6c-0.7-4.9-1.1-8.9-1-11.8c0.1-2.9,0.4-7,0.8-12.1c0.5-5.1,0.6-9.2,0.4-12.1
			c-0.2-6.6-0.1-12.3,0.3-17c-2.2-0.2-4.1-0.3-5.8-0.3c-0.9-0.5-1.5-1.3-1.7-2.2v-0.3c-1.6-5.9-2-12.9-1.1-21.2
			c0.5-4.4,1.5-6.9,2.8-7.4c0.2,0,0.4,0.1,0.5,0.3c5.7,0.6,12.3,0.8,19.8,0.8c0.7-0.2,1.6-0.3,2.5-0.3c0.6,0,1.3,0.1,2.2,0.3
			c1.8-0.2,4-0.3,6.6-0.4c2.6-0.1,4.9-0.1,6.9-0.1s4.3,0,6.7-0.1c2.5-0.1,4.7-0.1,6.8-0.1c2.2,0,3.3,5.1,3.3,15.4
			s-1.1,15.4-3.3,15.4c-3.7,0-8.7,0.1-15.1,0.3c-0.4,8.6-0.5,15.6-0.5,20.9c0,1.8-0.6,8.9-1.9,21.2l0.3,0.5c0.2,2.2,0.3,3.5,0.3,3.9
			l-1.1-2.5c1.5,4.9,2.2,8.4,2.2,10.5c0,0.5,0,1.4,0.1,2.6c0.1,1.2,0.1,2.2,0.1,3c0,0.8,0,1.8,0.1,3c0.1,1.2,0.2,2.2,0.4,3.2
			c0.2,0.9,0.4,1.9,0.7,3c0.3,1.1,0.6,2,1.1,2.8c0.4,0.7,1,1.5,1.5,2.2c0.5,0.7,1.2,1.4,1.9,1.9c0.7,0.6,1.6,0.9,2.5,1.1
			c2.2,0.6,4.6,0.9,7.2,1c2.6,0.1,5.5,0.1,8.8,0c3.3-0.1,5.7,0,7.2,0.2c5.7,0.2,12.5,0.3,20.4,0.3c2.6,0,6.2-0.1,10.9-0.4
			c4.7-0.3,7.6-0.4,8.7-0.4c6.8-0.4,11.6-1.1,14.3-2.2c-0.4,0.7-0.4,0.9,0,0.5c0.2-0.2,0.5-0.4,0.8-0.8c0-0.2,0.2-0.5,0.5-1.1
			c0.7-2.2,1.5-3.5,2.2-3.9c0.2-1.8,0.3-4.5,0.3-8.1c0-3.6,0.1-6.2,0.3-7.8c0-2.2,0.3-4.5,0.8-6.9c0.4-0.9,0.6-1.7,0.8-2.5v-3
			c-1.3-12.3-1.9-19.4-1.9-21.2c0.2-5.3,0-12.5-0.5-21.5c-3.9-0.2-7-0.3-9.4-0.3c-2.4,0-3.6-5.1-3.6-15.3c0-10.2,1.2-15.3,3.6-15.3
			c2.9,0,8,0,15.3,0.1c7.2,0.1,13.5,0.1,18.9,0C865.7,101.8,870.7,101.6,875.5,101.2z M867.8,265.3c1.5,0,2.5,2.6,3,7.7
			c0.6,5.1,0.5,10.3-0.1,15.4c-0.6,5.1-1.6,7.7-2.9,7.7c-0.5,0-1.3-0.2-2.2-0.6c-0.9-0.4-1.6-0.5-1.9-0.5c-0.9-0.2-2.3-0.2-4.1,0
			c-1.8,0.2-3.2,0.2-4.1,0c-4.6-0.6-9.8-0.8-15.7-0.8c-8.1,0-15.1,0.2-21.2,0.6c-2.4,0.2-5.7,0-9.9-0.6s-7-0.8-8.3-0.8
			c-4-0.2-8.2-0.2-12.4,0s-9.5,0.5-15.7,0.8c-6.2,0.4-10.3,0.6-12.1,0.8c-1.7,0.4-8.7,0.4-21.2,0.1c-12.5-0.3-19.5-0.4-20.9-0.4
			c-2.4,0-3.5-5.1-3.4-15.3c0.1-10.2,1.2-15.3,3.4-15.3c1.5,0,8.4,0.1,20.9,0.4c12.5,0.3,19.5,0.1,21.2-0.4c1.8,0,5.9-0.2,12.1-0.7
			c6.2-0.4,11.5-0.7,15.7-0.8s8.3-0.1,12.4-0.1c1.3,0.2,4,0.5,8.3,1c4.2,0.4,7.5,0.6,9.9,0.4c6.1-0.4,13.1-0.5,21.2-0.5
			c5.9,0,11.1,0.4,15.7,1.1c0.7,0,1.5,0,2.2,0c0.7,0,1.4,0,1.9-0.1c0.5-0.1,1.2-0.1,1.9-0.1c0.7,0,1.5,0,2.2,0
			c0.4,0,0.8,0.1,1.2,0.3c0.5,0.2,1,0.4,1.5,0.6C867,265.2,867.4,265.3,867.8,265.3z"/>
		<path d="M1063.2,275.2c0,0.6,0,1.2,0,2.1c0,0.8,0,1.5,0,2.1c0,0.6,0,1.2-0.1,1.9c-0.1,0.7-0.3,1.4-0.7,1.9c-0.2,0.5-0.6,1-1.1,1.4
			c-0.7,2.4-1.5,3.6-2.2,3.6c-3.5,0-7.7,0-12.5,0.1c-4.9,0.1-9.5,0.2-14,0.3c-4.5,0.1-8.7,0.1-12.5,0.1c-4,0-9.8,0.3-17.3,1
			c-7.5,0.6-12.6,1.1-15.1,1.3c-0.9,0-7.6-0.4-20.1-1.1c-1.3,0-4.1-0.1-8.4-0.4c-4.3-0.3-7.7-0.4-10-0.6c-2.4-0.1-4.9-0.2-7.7-0.4
			c-3.9,1.3-9.4,1.7-16.5,1.4c-7.2-0.4-10.8-1.5-11-3.3c0-1.1-0.3-3.9-1-8.4c-0.6-4.5-1-7.9-1-10.3v-12.7v-12.4
			c0-29.2,0-44.6,0-46.2c0-4.4-0.2-11.3-0.7-20.8c-0.5-9.5-0.7-16.6-0.7-21.6c0.2-4.2,0.4-11.4,0.5-21.5c-4.4,0-7.8,0-10.2,0
			c-1.5,0-2.5-2.6-3-7.7c-0.5-5.1-0.5-10.3,0.1-15.4c0.6-5.1,1.6-7.7,2.9-7.7c2.4,0,5.8,0,10.2,0.1c4.4,0.1,7.6,0.1,9.6,0.1
			c2.8-0.2,5.7-0.2,8.8,0c2.6-0.2,4.9-0.4,6.9-0.6c12.3-1.5,21.4-1.8,27.2-1.1c1.6,0.4,2.7,3.1,3,8.3s0.2,10.2-0.5,15.3
			c-0.7,5-1.6,7.5-2.5,7.3c-5.5-0.7-12.8-0.6-22,0.3c-0.2,10.5-0.3,18.4-0.3,23.9c0,4.6,0.2,11.4,0.7,20.5
			c0.4,9.1,0.7,15.9,0.7,20.5c0,1.7,0,17.5,0,47.6v13.8c2.4,0,4.5,0.1,6.3,0.3c2,0.2,5.1,0.4,9.2,0.6c4.1,0.2,7.2,0.3,9.2,0.3
			c11.2,0.7,17.9,1.1,20.1,1.1c2.6-0.2,7.6-0.6,15.1-1.2c7.5-0.6,13.3-1,17.3-1c3.3,0.2,7.2,0.2,11.6,0c-0.7-9.2-1.1-15.9-1.1-20.1
			c0-1.5,2.6-2.5,7.7-3c5.1-0.6,10.2-0.6,15.3,0c5,0.5,7.6,1.6,7.6,3c0.2,3.9,0.7,11.6,1.6,23.4
			C1062.8,265.7,1063,270.4,1063.2,275.2z"/>
		<path d="M1260.5,260.8c1.5,0,2.5,2.6,3,7.7c0.5,5.2,0.5,10.3,0,15.4c-0.5,5.2-1.6,7.7-3,7.7c-3.5,0-9.1-0.1-16.8-0.3
			c-7.7-0.2-13.6-0.3-17.6-0.3c-1.3,0.2-2.3-2-3-6.6c-2.9-2.2-6.5-6.5-10.6-12.8c-4.1-6.3-6.7-10.1-7.8-11.4c-1.7-1.8-4-4.5-7-8.1
			c-3-3.6-5.8-6.8-8.3-9.8s-4.9-5.6-7.3-8c-3.3-3.5-4.9-5.3-4.7-5.5h0.3c-0.2,0-1,0-2.5,0h-6.1c-0.5,0-0.9,0-1.1,0
			c-5.9,0-9.3,0-10.2,0c-0.7,0-2.2,0-4.4,0c-2.2,0-4,0-5.2,0c-2,0-4-0.2-6.1-0.6h-0.5c0-0.2-0.1-0.2-0.3-0.1s-0.3,0-0.3-0.1
			c-0.7,0-1.8-0.1-3.3-0.3c-0.2,0-1.2,0.2-3.2,0.5c-1.9,0.4-3.3,0.6-4.3,0.6c-1.5,0.2-3.9,0.2-7.4,0c-0.2,5.9-0.1,11,0.3,15.4
			c0.2,0.5,0.5,2.2,0.8,4.8c0.4,2.7,0.5,4.7,0.5,6.2c0.2,1.3,0.2,3,0,5c5.3,0.2,9.5,0,12.7-0.6c0.2-0.2,0.4-0.1,0.8,0.1
			c0.4,0.3,0.7,0.7,1,1.4c0.3,0.6,0.5,1.4,0.7,2.3c1.5,7,1.5,14.2,0,21.7c0,0.2-0.1,0.4-0.3,0.5c-0.5,3-1.3,4.5-2.2,4.7
			c-1.1,0.2-5.1,0.2-12.1,0c-1.3,0-2.7,0-4.1,0.1c-1.5,0.1-3,0.2-4.7,0.3c-1.7,0.1-3,0.2-4.1,0.4c-0.2,0.2-5.1,0.2-14.6,0
			c-9.5-0.2-14.5-0.3-14.9-0.3c-1.5,0-2.5-2.5-3-7.6c-0.5-5-0.5-10.1,0.1-15.3c0.6-5.1,1.6-7.7,2.9-7.7c2.2,0,5.9,0,11,0
			c0.2-2.6,0.2-4.8,0-6.6c0-1.3-0.2-3.1-0.6-5.5c-0.4-2.4-0.6-4-0.8-4.9c-0.4-5.3-0.2-12.8,0.4-22.6c0.6-9.7,1-16.4,1-20.1
			c0-2.7,0-5.7,0-8.8c0-3.1,0-6.6,0-10.3c0-3.7,0-6.7,0-8.9c0-1.7,0-3.8,0.1-6.3c0.1-2.6,0.2-4.8,0.3-6.6c0.1-1.8,0.1-3.9,0-6.3
			c-0.1-2.4-0.2-4.6-0.4-6.6c-0.6-4.2-0.8-9.3-0.8-15.1c-4.4,0.2-7.8,0.3-10.2,0.3c-2.2,0-3.3-5.1-3.3-15.4
			c0-10.3,1.1-15.4,3.3-15.4c17.6,0,28.7,0,33.3,0c2.6,0.2,6.3,0,11.2-0.5c4.8-0.6,8.5-0.8,10.9-0.8c1.5,0,2.5,2.6,3,7.7
			c0.5,5.1,0.5,10.3,0,15.4c-0.6,5.1-1.6,7.7-3,7.7c-1.6,0-6.4,0.4-14.3,1.1c0,5.7,0.3,11.1,0.8,16.2c0.4,7.3,0.5,12.9,0.5,16.5
			c0,3.7-0.1,9.2-0.3,16.7c-0.2,7.4-0.3,13-0.3,16.6c7-0.5,11-0.8,12.1-0.8c0.7,0,1.6,0,2.5,0h0.5c1.3,0,2.8,0.2,4.7,0.6
			c0.4,0,0.6,0,0.8,0c0.9-0.2,2.3-0.3,4.1-0.4c1.8-0.1,3.1-0.2,3.9-0.4c1.3,0,3.6-0.2,6.9-0.7c3.3-0.4,5.9-0.7,7.7-0.7l3.9,0.3
			c0.5-0.2,1-0.3,1.4-0.3c0.7-0.6,1.8-1.5,3.3-2.8c0.2-0.2,0.4-0.3,0.6-0.3c0-0.2,0-0.4,0-0.5c0-0.4,0.6-2.1,1.9-5.2
			c4.6-12.3,7.2-19.3,7.7-20.9c0.9-2.6,2.4-6.3,4.5-11.3c2.1-4.9,3.6-8.7,4.5-11.3c0-0.4,0.7-3.5,2.2-9.4c0.2-0.9,0.5-2.1,1.1-3.6
			c0.5-1.5,1-2.8,1.4-4.1c0.4-1.3,0.6-2.5,0.8-3.6c0.2-2.6,0.8-4.9,1.9-7.1c0.2-2.8,0.5-5.3,1.1-7.7c0-0.2,0-0.4,0-0.6
			c0.5-2.8,1.3-4.2,2.2-4.4c0.7-0.2,1.7-0.2,2.9-0.2c1.2,0.1,2.2,0.2,2.9,0.3c0.7,0.1,1.7,0.2,2.8,0.3c1.1,0.1,2.1,0.1,3,0.1
			c0.5,0.2,2.5,0.2,5.8,0.1c3.3-0.1,5.2-0.1,5.8-0.1c2.4,0,5.9-0.1,10.6-0.3s8.1-0.3,10.3-0.3c1.5,0,2.5,2.5,3,7.6
			c0.5,5,0.5,10.1,0,15.3c-0.6,5.2-1.6,7.7-3,7.7c-2.2,0-5.6,0.1-10.2,0.4c-4.6,0.3-8,0.4-10.2,0.4c-0.9,3.7-2,7.4-3.3,11.2
			c-1.3,3.8-2.9,8.4-5,13.8c-2,5.4-3.4,9-4.1,10.9c-5.1,14.3-8.2,22.4-9.1,24.2c-3.5,9-5.8,14.2-6.9,15.7c2.2,2.2,4.4,4.6,6.6,7.1
			c2.2,2.6,4.8,5.7,7.7,9.4c2.9,3.7,5,6.2,6.1,7.7c0.9,0.9,2.3,2.4,4.1,4.4c1.8,2,3.4,3.9,4.7,5.5c1.3,1.7,2.5,3.3,3.6,5
			c2.4,3.9,4.9,7.4,7.7,10.7c0.5,0.4,1.1,0.7,1.6,1.1C1251.4,260.8,1257,260.8,1260.5,260.8z"/>
		<path d="M1447.7,260.3c1.3,3.5,1.7,9.1,1.4,16.9c-0.4,7.8-1.5,11.7-3.3,11.7c-8.3,0-20.8-0.2-37.7-0.6
			c-16.9-0.4-29.6-0.6-38.3-0.6h-44.9c-3.9,0-10,0.2-18.6,0.6c-8.5,0.4-15.1,0.6-19.7,0.6c-1.5-0.2-2.5-2.8-3-8
			c-0.5-5.1-0.5-10.2,0.1-15.3c0.6-5,1.6-7.6,2.9-7.6c0.2,0,0.5,0,1.1,0l0.3-0.3c5.3-7.3,13.9-17.2,25.9-29.5c-2.2,0-5.4,0-9.5-0.1
			c-4.1-0.1-7-0.1-8.7-0.1c-2.2,0-3.3-5.1-3.3-15.3c0-10.2,1.1-15.3,3.3-15.3c15.8,0,24.7-0.1,26.7-0.3c1.5-0.2,3.5-0.1,6,0.3
			c2.6,0.4,4.4,0.6,5.5,0.6c1.3,0,3-0.3,5.1-0.8c2.1-0.6,3.5-0.8,4.3-0.8c0.6-0.2,1.5-0.3,2.8-0.3c5.7-5.5,10.2-10.4,13.5-14.6
			c1.1-1.1,2.8-2.8,5-4.9c2.2-2.2,3.9-3.9,4.9-4.9c0.4-0.6,1.6-2.2,3.6-4.8c2-2.7,3.8-4.6,5.2-5.9c1.8-1.8,3.7-3.8,5.6-5.9
			c1.9-2.1,4.1-4.5,6.5-7.1s4.2-4.7,5.5-6.2c0.7-0.9,4.6-4.3,11.6-10.2c-1.1,0-2-0.1-2.8-0.3c-4.2-0.6-10.1-0.9-17.6-1.1
			c-2,0-4.9,0.2-8.5,0.7c-3.7,0.5-6.3,0.7-8,0.7h-44.3c-1.7,0-4,0-6.9-0.1s-4.8-0.1-5.5-0.1c0,0.9,0,1.6,0,2.2
			c0.2,1.1,0.1,2.7-0.1,4.7c-0.3,2-0.4,3.5-0.4,4.4c0,0.4,0,1.9,0.1,4.5c0.1,2.7,0,4.2-0.4,4.5c0,0.9-1.5,1.7-4.4,2.2h-0.5
			c-7.7,1.7-15,1.7-21.7,0c-2.8-0.5-4-1.3-3.9-2.2c0.2-0.7,0.2-2.4,0.1-5.1c-0.1-2.7-0.1-4.4-0.1-5.1c0-0.5,0.1-1.7,0.4-3.6
			c0.3-1.8,0.4-3.3,0.4-4.4c0-0.9-0.1-1.8-0.3-2.8c-1.5-3.5-2-9.2-1.5-17.2c0.5-8,1.5-11.9,3.2-11.7c2.7,0,6.6-0.2,11.4-0.6
			c4.9-0.4,8.2-0.5,10-0.5c1.1-0.2,4.9-0.2,11.4-0.2c6.5,0.1,10.4,0.2,11.7,0.2c0.2,0,7.3,0.1,21.5,0.3c14.1,0.2,21.4,0.1,21.7-0.3
			c1.3,0,2.9-0.1,4.8-0.3c1.9-0.2,3.6-0.3,4.9-0.4c1.4-0.1,3-0.2,4.8-0.3c1.8-0.1,3.5-0.2,4.9-0.2c2.4,0.2,7.3,0.6,14.9,1.1
			c0.6,0.4,4.3,0.4,11.2,0.3c6.9-0.2,10.6-0.3,11.1-0.3c0.7,0,1.7,0,2.9-0.2c1.2-0.1,2.3-0.1,3.2-0.1c0.9,0,1.9,0,2.9,0.1
			c1,0.1,2,0.3,2.9,0.6c0.9,0.3,1.7,0.7,2.5,1.2c2.2,1.3,2.9,7.5,2.2,18.7c0,2.4-0.1,4.2-0.3,5.5c0,0.7-0.2,1.4-0.5,1.9v0.3
			c-0.5,2.2-1.2,3.3-1.9,3.3c-0.9,1.7-2.7,4.2-5.4,7.6c-2.7,3.4-4.5,6-5.6,7.9c-1.8,3.1-5.1,6.6-9.6,10.3c-4.6,3.8-7.5,6.4-8.8,7.9
			c-0.4,0.5-2.8,3.5-7.3,8.8c-4.5,5.3-8.1,9.2-10.9,11.6c-2.6,2.4-5.6,5.5-9.1,9.4c5.5,0.2,8.9,0.3,10.2,0.3c2.4,0,3.5,5.1,3.4,15.3
			c-0.1,10.2-1.2,15.3-3.4,15.3c-15.8,0-24.5,0.1-26.1,0.3c-2.9,0.4-7.4,0.5-13.5,0.3c-4.6,4.2-9.6,9.3-14.9,15.1
			c-1.6,1.7-6.6,6.7-14.9,15.1h42.7c7.5,0,23.2,0.3,47.1,0.8c-0.5-9.2-0.8-15.2-0.8-18.2c0-2.4,5.1-3.6,15.4-3.6
			c10.3,0,15.4,1.2,15.4,3.6C1446.8,241.5,1447.1,248.4,1447.7,260.3z"/>
		<path d="M1480.7,218.7c-3.3-6-5.4-10.8-6.3-14.3c-3.1-8.1-4.7-17.1-4.7-27c0-1.8,0.3-4.5,0.8-7.8c0.5-3.4,0.9-5.6,1.1-6.7
			c0.4-5.2,0.6-8.1,0.8-8.8c0-0.7,0-2.2,0.1-4.3c0.1-2.1,0.1-3.7,0.1-4.7c0-1,0.2-2.3,0.5-4c0.4-1.7,0.9-3.1,1.7-4.4
			c2.4-5.1,4.5-9,6.3-11.6c5.1-7,12.4-12.3,21.7-16c10.8-4.4,19.7-6.9,26.7-7.4c4.6-0.4,11.3-0.7,20.1-1.1
			c8.1-0.4,15.6-0.1,22.6,0.8c7.7,1.1,16.6,3.7,26.7,7.7c9.5,3.7,17,9.3,22.3,16.8c1.5,2.2,3.4,5.8,5.8,10.7
			c0.7,1.3,1.2,2.8,1.5,4.4c0.3,1.7,0.5,3,0.5,4c0.1,1,0.2,2.6,0.3,4.7s0.1,3.5,0.1,4.3c0.2,1.1,0.5,4.1,0.8,8.8
			c0.2,1.3,0.5,3.6,1.1,6.9c0.5,3.3,0.8,5.9,0.8,7.7c0,9.7-1.6,18.7-4.7,27c-0.9,3.5-3,8.3-6.3,14.3c-3.3,6-7.7,10.5-13.2,13.5
			c-3.9,3.1-8.5,5.6-14,7.3c-5.5,1.7-10.8,2.6-16,2.6c-1.5,0-3.1,0-4.8-0.2c-1.7-0.1-3.6-0.2-5.6-0.3c-2-0.1-3.6-0.1-4.7-0.1
			c-0.9,0-1.8,0-2.8,0h0.3c-0.7,0-1.7,0.1-3,0.3c-1.6,0.6-3.3,0.7-4.9,0.6c-1.1,0.2-2.3,0.1-3.6-0.3c-2.6,0-7.2,0-13.9-0.2
			c-6.7-0.1-11.9-0.2-15.5-0.4c-3.7-0.2-8-1.1-12.9-2.6c-5-1.5-9.2-3.8-12.7-6.7C1488.4,229.3,1484,224.8,1480.7,218.7z
			 M1625.7,265.3c0.9,0,1.7,1.1,2.3,3.2c0.6,2.1,1,4.7,1.1,7.7c0.1,3,0,6.1-0.1,9.1c-0.2,3-0.5,5.6-1.1,7.7
			c-0.5,2.1-1.3,3.2-2.2,3.2c-0.5,0-1.2-0.2-2.1-0.6c-0.8-0.4-1.5-0.5-2.1-0.5c-0.7-0.2-2-0.2-3.9,0c-1.8,0.2-3.2,0.2-4.1,0
			c-4.6-0.6-9.8-0.8-15.7-0.8c-8.3,0-15.4,0.2-21.5,0.6c-2.4,0.2-5.6,0-9.8-0.6c-4.1-0.6-6.9-0.8-8.4-0.8c-4-0.2-8.1-0.2-12.3,0
			c-4.1,0.2-9.3,0.5-15.5,0.8c-6.2,0.4-10.4,0.6-12.4,0.8c-1.5,0.4-8.4,0.4-20.9,0.1s-19.5-0.4-21.2-0.4c-2.2,0-3.3-5.1-3.3-15.3
			c0-10.2,1.1-15.3,3.3-15.3c1.6,0,8.7,0.1,21.2,0.4s19.5,0.1,20.9-0.4c2.4,0,5.7-0.2,10-0.6c4.3-0.4,7.7-0.6,10-0.7
			c2.4-0.1,5.7-0.2,10-0.4c4.3-0.2,7.7-0.2,10,0c1.5,0.2,4.3,0.5,8.4,1c4.1,0.4,7.4,0.6,9.8,0.4c6.2-0.4,13.4-0.5,21.5-0.5
			c5.9,0,11.1,0.4,15.7,1.1c0.5,0,1.2,0,1.9,0c0.7,0,1.4,0,2.1-0.1c0.6-0.1,1.3-0.1,2.1-0.1c0.7,0,1.4,0,1.9,0
			c0.4,0,0.7,0.1,1.1,0.3c0.4,0.2,0.7,0.3,1.1,0.4c0.4,0.1,0.7,0.2,1.1,0.3C1625.3,265.2,1625.6,265.3,1625.7,265.3z M1502.4,158.2
			c-0.2,2-0.6,5.4-1.2,10c-0.6,4.7-1,8.1-1,10.3c0.2,2,0.9,5.8,2.2,11.3c0.4,1.8,0.6,3.1,0.8,3.9c0.2,0.9,0.3,1.6,0.3,1.9
			c0.2,0.4,0.3,0.8,0.3,1.4c0.5,0.7,0.9,1.2,1.1,1.4c0.2,0.5,0.5,1.3,1,2.2c0.5,0.9,0.8,1.5,1,1.7c0.6,1.5,1.5,2.8,2.8,3.9
			c4.4,2.4,7.5,3.8,9.4,4.1c1.6,0.2,3.2,0.5,4.7,0.8c-2.8,0.7-1.9,0.7,2.5,0c1.6-0.2,4-0.3,7.2-0.3c6,0,12.5,0.4,19.3,1.1
			c10.6-0.9,18-1.2,22-0.8c1.5,0,3,0.1,4.7,0.3l0.3-0.5c0.2,0,1-0.1,2.5-0.3c1.5-0.2,2.7-0.4,3.6-0.5c1.5-0.4,3.7-1.5,6.6-3.3
			c1.3-1.3,2.3-2.7,3-4.4c1.5-2.9,2.3-4.5,2.5-4.7v-0.3l0.3-0.3c0.2-0.5,0.3-1,0.3-1.4c0.5-0.9,0.9-1.7,1.1-2.2
			c0-0.7,0.1-1.9,0.3-3.6c1.3-6.4,1.9-10.2,1.9-11.3c0.2-2.2-0.1-5.8-0.8-10.9c-0.7-5.1-1.1-8.8-1.1-11.2c-0.2-1.3-0.4-3.5-0.5-6.6
			c-0.2-0.7-0.5-1.5-0.8-2.5c-1.1-2.4-1.8-3.8-2.2-4.1c-0.7-1.1-1.6-2.1-2.5-2.9c-0.9-0.8-1.7-1.4-2.2-1.7c-0.5-0.3-1.6-0.7-3.3-1.4
			c-1.6-0.6-2.8-1.1-3.6-1.2c-9-3.9-20.5-5.5-34.7-4.9c-4.2,0.2-7.3,0.4-9.2,0.5c-1.9,0.2-4.5,0.5-7.8,0.8c-3.3,0.4-6.3,0.9-8.9,1.5
			c-2.7,0.6-5.4,1.5-8.1,2.6c-0.5,0.4-1.3,0.7-2.3,1.1c-1,0.4-1.7,0.6-2.1,0.8c-0.4,0.2-0.9,0.5-1.5,0.8c-0.6,0.4-1.1,0.7-1.5,1.1
			c-0.4,0.4-0.8,0.9-1.4,1.5c-0.5,0.6-1.1,1.4-1.6,2.3c-0.2,0.2-0.8,1.5-1.9,3.9c-0.2,0.6-0.4,0.9-0.5,1.1c0.2,0,0.4,0.4,0.5,1.1
			C1503.3,153.1,1503,155.6,1502.4,158.2z"/>
		<path d="M1819.2,258.9c0.9,0,1.7,1.1,2.2,3.2c0.5,2.1,0.9,4.6,1.1,7.6c0.2,3,0.2,5.9,0.1,9c-0.1,3-0.5,5.6-1.1,7.7
			c-0.6,2.1-1.4,3.2-2.3,3.2c-1.1,0.2-7.4,0.4-19,0.6c-1.8,0.2-3.8,0.3-5.8,0.3c-3.1,0-6.1,0-8.8,0c-0.4,0-0.7-0.4-1.1-1.1
			c-2.9-0.6-4.4-1.4-4.4-2.5c0-2.4,0.1-6.4,0.4-12.1c0.3-5.7,0.4-10,0.4-12.9c-0.2-2.2-0.5-4.8-0.8-7.8c-0.4-3-0.7-6-1.1-9
			c-0.4-2.9-0.5-5.6-0.5-8c0-0.2,0-0.4,0-0.5c-1.3-1.1-2.7-2.4-4.1-4c-1.5-1.5-3-3.2-4.5-4.8c-1.6-1.6-2.9-3-4-4.1
			c-6.8-6.6-11-10.8-12.7-12.7c-2.4-2.9-4.9-5.8-7.6-8.5c-2.7-2.8-6.2-6.3-10.6-10.7c-4.4-4.4-7.2-7.2-8.3-8.3c-0.5-0.6-1.6-1.6-3-3
			c-1.5-1.5-2.5-2.5-3-3c-0.5-0.6-1.5-1.5-2.7-2.9c-1.3-1.4-2.3-2.4-2.9-3c-0.6-0.6-1.6-1.6-2.7-2.9c-1.2-1.3-2.1-2.3-2.8-3.2
			c-0.6-0.8-1.5-1.8-2.6-3c-1.1-1.2-2-2.3-2.7-3.3c-0.7-1-1.5-2.1-2.3-3.3c-0.8-1.2-1.6-2.3-2.3-3.4c0.5,18.9,0.8,33.2,0.8,42.9
			c0,5.3-0.2,13-0.5,23.1c-0.4,10.1-0.6,17.5-0.6,22.3c0,0.5,0.1,6.6,0.3,18.2c4.9-0.4,9.4-0.6,13.2-0.6c1.5,0.2,2.5,2.8,3,8
			c0.5,5.1,0.5,10.2-0.1,15.3c-0.6,5-1.6,7.6-2.9,7.6c-5.1-0.2-13.1,0.2-24,1.1c-1.1,0.2-10.9,0.3-29.4,0.3c-1.5,0-2.5-2.6-3-7.7
			c-0.5-5.1-0.5-10.3,0-15.4c0.6-5.1,1.6-7.7,3-7.7c2,0,5.1,0.1,9.4,0.3c0-1.3,0-4.4-0.1-9.4c-0.1-4.9-0.1-8.7-0.1-11.3
			c0-4.7,0.2-12,0.5-21.7s0.5-17.2,0.5-22.3c0-3.1-0.4-24-1.1-62.7h-10.5c-2.2,0-3.3-5.2-3.3-15.4c0-10.3,1.1-15.4,3.3-15.4h38.3
			c0.7,0,1.4,0.9,1.9,2.8c0.4,0.2,0.5,0.5,0.5,0.8v0.6c0.4,0.4,0.7,0.7,1.1,1.1c1.1,1.5,3.3,4.3,6.6,8.5c0.4,0.4,0.8,0.9,1.2,1.5
			c0.5,0.6,0.8,1.1,1,1.3c1.6,2,2.7,3.1,3,3.3c-0.2,0-0.7-0.4-1.6-1.1c0.5,0.4,1.3,0.9,2.2,1.7c0.9,0.7,1.7,1.3,2.2,1.6
			c0.5,0.4,1.2,0.9,1.9,1.5c0.7,0.6,1.3,1.2,1.8,1.7c0.5,0.4,1,1,1.6,1.7c0.6,0.6,1.3,1.3,1.9,2.1c0.6,0.7,1.2,1.5,1.8,2.5
			c0.2,0.2,1.6,2.2,4.1,6.1c2.6,3.9,4.7,6.7,6.3,8.5c1.3,1.5,2.8,3,4.5,4.5c1.7,1.6,3.5,3.2,5.4,4.9c1.8,1.7,3.4,3.3,4.7,4.5
			c1.5,1.5,3.3,3.3,5.5,5.5c2.2,2.2,4.1,4.1,5.8,5.6c1.7,1.6,3.4,3.3,5.4,5.4c1.9,2,3.8,4,5.5,5.9c1.7,1.9,3.4,3.9,5.1,5.9
			c1.5,1.7,2.5,2.9,3,3.9c0-0.2,0-0.6,0-1.2c0-0.6,0-1.1,0-1.3c-0.7-7.7-0.8-15.9-0.3-24.5c0-1.3,0.3-4.4,1-9.2s0.9-8.7,0.7-11.4
			c-0.2-4.6-0.4-8.8-0.5-12.7c-4.4-0.2-8.5-0.6-12.4-1.1c-1.7-0.4-2.7-3.1-3-8.3c-0.4-5.1-0.2-10.2,0.5-15.3c0.7-5,1.6-7.5,2.5-7.3
			c5.7,0.9,12.3,1.3,19.8,1.1c3.1-0.4,6.5-0.5,10.2-0.3c11.6-0.5,18.7-0.8,21.5-0.8c1.5,0,2.5,2.6,3,7.7c0.5,5.2,0.5,10.3,0,15.4
			c-0.5,5.1-1.6,7.7-3,7.7c-2.4,0-5.1,0-8.3,0c0.2,6.4,0.4,11.4,0.5,14.8c0,2-0.1,4.2-0.4,6.6c-0.3,2.4-0.5,4.9-0.8,7.4
			c-0.3,2.6-0.5,4.8-0.7,6.6c-0.2,9.7-0.1,17.5,0.3,23.4c0.7,8.4,1.1,16.1,1.1,22.8c0,2.6-0.2,6.6-0.5,12c-0.4,5.4-0.5,9.5-0.5,12.3
			c0,2,0.1,4.2,0.4,6.6c0.3,2.4,0.6,4.9,1,7.6c0.4,2.7,0.6,4.8,0.8,6.5C1814.6,258.9,1817.2,258.9,1819.2,258.9z"/>
		<path d="M2014.1,135.4c-0.2,0.9-2.7,1.7-7.4,2.5c-0.2,0-0.4,0.1-0.6,0.3c-9.5,1.3-16.6,0.9-21.2-1.1c-1.6-0.9-2.1-1.7-1.4-2.5
			c0.2-0.6,0.2-1.7,0.1-3.3c-0.1-1.7-0.1-2.8-0.1-3.3v-0.5c-27.5-0.4-48.2-0.2-61.9,0.5c-7.2,0.4-16.1,0.4-27,0
			c0.4,18.9,0.5,31.5,0.5,37.7v0.8c0.9,0,1.7,0,2.2,0c1.1-0.4,4.4-0.4,10-0.3c5.6,0.2,8.9,0.3,10,0.3c6.1-0.2,18.9,0.3,38.5,1.4
			c1.6,0,2.7,2.6,3.2,7.7s0.4,10.3-0.3,15.4c-0.6,5.1-1.6,7.6-2.9,7.4c-19.6-0.9-32.5-1.4-38.5-1.4c-0.5,0-4.1,0-10.6-0.1
			c-6.5-0.1-10,0-10.3,0.4c-0.4,0-0.8,0-1.4,0c0,0.5,0.1,5.4,0.3,14.6c0.4,0,0.7,0,1.1,0c0.4,0,0.6,0,0.8,0c4.2-0.2,10.4,0,18.6,0.5
			c8.2,0.6,14.3,0.8,18.3,0.8c3.5,0,8.9-0.3,16.2-1c7.3-0.6,12.9-1,16.8-1s8.4-0.1,13.8-0.3c0-1.5,0-3.9,0-7.4
			c0-2.2,5.1-3.3,15.4-3.3c10.3,0,15.4,1.1,15.4,3.3c0,4.1-0.1,6.8-0.3,8.3c1.5,3.3,2.1,9,1.8,17.1c-0.3,8.1-1.4,12.1-3.4,12.1
			c-3.9,0-8.5,0.1-13.9,0.3c-5.4,0.2-10.7,0.4-16,0.5c-5.2,0.2-10,0.3-14.2,0.3c-2.9-0.2-6.3-0.1-10,0.3s-7.6,0.7-11.4,1
			s-7.2,0.4-10.2,0.4c-4.2,0.2-10.6,0-19.1-0.5c-8.5-0.6-14.9-0.8-19.1-0.8c-6.8,0.2-11.9,0.3-15.4,0.3c-3.5,0-8.7,0-15.6-0.1
			c-6.9-0.1-12.1-0.1-15.5-0.1c-2.4,0-3.5-5.1-3.4-15.3c0.1-10.2,1.2-15.3,3.4-15.3c3.5,0,8.6,0,15.4,0c-0.4-12.1-0.5-18.9-0.5-20.4
			c0-5.7,0-14.3,0-25.9c0-5.9-0.2-18.8-0.5-38.8c-5.5,0-10.6,0.1-15.1,0.3c-1.3,0-2.3-2.5-2.9-7.6c-0.6-5-0.7-10.2-0.1-15.4
			c0.5-5.2,1.6-7.8,3-7.8c7.9-0.4,20-0.2,36.2,0.4c16.2,0.6,28.5,0.8,36.7,0.4c8.8-0.4,18.1-0.6,27.8-0.7c9.7-0.1,20.9,0,33.6,0.1
			c12.7,0.2,21.9,0.3,27.8,0.3c0.9,0,1.7,1,2.2,3c0.5,2,0.9,4.5,1.1,7.6c0.2,3,0.2,6,0,8.9c0.4,2.2,0.6,3.6,0.8,4.1
			c0.2,0.9,0.1,2.3-0.1,4.1c-0.3,1.8-0.5,3-0.6,3.4c-0.1,0.5-0.1,1.7,0,3.6S2014.2,134.8,2014.1,135.4z M2010.8,265.3
			c1.5,0,2.5,2.6,3,7.7c0.5,5.1,0.5,10.3-0.1,15.4c-0.6,5.1-1.6,7.7-2.9,7.7c-0.5,0-1.3-0.2-2.3-0.6c-1-0.4-1.8-0.5-2.3-0.5
			c-0.9-0.2-2.3-0.2-4.3,0c-1.9,0.2-3.3,0.2-4.3,0c-5-0.6-10.6-0.8-17.1-0.8c-8.6,0-16.3,0.2-23.1,0.6c-2.6,0.2-6,0-10.3-0.6
			c-4.3-0.6-7-0.8-8.1-0.8c-7.5,0-12.4,0-14.7,0s-7.3,0.2-15,0.7c-7.7,0.4-12.7,0.8-14.9,1c-1.8,0.4-9.5,0.4-22.8,0.1
			c-13.4-0.3-21-0.4-22.8-0.4c-2.2,0-3.3-5.1-3.3-15.3c0-10.2,1.1-15.3,3.3-15.3c1.8,0,9.5,0.1,22.8,0.4c13.4,0.3,21,0.1,22.8-0.4
			c2.6,0,6.3-0.2,11.1-0.6c4.9-0.4,8.6-0.6,11.3-0.7c2.7-0.1,6.4-0.2,11.1-0.4c4.8-0.2,8.4-0.2,11,0c1.1,0.2,3.8,0.5,8.1,1
			c4.3,0.4,7.7,0.6,10.3,0.4c6.8-0.4,14.5-0.5,23.1-0.5c6.4,0,12.1,0.4,17.1,1.1c0.9,0,2.3-0.1,4.3-0.3c1.9-0.2,3.3-0.2,4.3,0
			c0.6,0,1.3,0.2,2.3,0.5C2009.4,265.1,2010.2,265.3,2010.8,265.3z"/>
	</g>
</g>
</svg>
